<?xml version="1.0" encoding="utf-8"?>
<!-- Generator: Adobe Illustrator 22.1.0, SVG Export Plug-In . SVG Version: 6.00 Build 0)  -->
<svg version="1.1" id="Layer_1" xmlns="http://www.w3.org/2000/svg" xmlns:xlink="http://www.w3.org/1999/xlink" x="0px" y="0px"
	 viewBox="0 0 20 20" style="enable-background:new 0 0 20 20;" xml:space="preserve">
<style type="text/css">
	.st0{fill:none;}
	.st1{fill:#FFFFFF;}
</style>
<g>
	<g transform="translate(-918.000000, -996.000000)">
		<g transform="translate(100.000000, 852.000000)">
			<g transform="translate(816.000000, 142.000000)">
				<g>
					<polygon class="st0" points="0,0 24,0 24,24 0,24 					"/>
					<path class="st1" d="M4,6H2v14c0,1.1,0.9,2,2,2h14v-2H4V6z M20,2H8C6.9,2,6,2.9,6,4v12c0,1.1,0.9,2,2,2h12c1.1,0,2-0.9,2-2V4
						C22,2.9,21.1,2,20,2z M20,16H8V4h12V16z M12,5.5v9l6-4.5L12,5.5z"/>
				</g>
			</g>
		</g>
	</g>
</g>
</svg>
